{"title":"Beauty and the Beast 2012 S03E01 720p HDTV x264","uid":12009941,"size":886019231,"categoryP":"video","categoryS":"hd___tv_shows","magnet":"?xt=urn:btih:96f2a5e6645b23210788813b46d7fe7f7c7a274e&amp;dn=Beauty+and+the+Beast+2012+S03E01+720p+HDTV+x264&amp;tr=udp%3A%2F%2Ftracker.openbittorrent.com%3A80&amp;tr=udp%3A%2F%2Fopen.demonii.com%3A1337&amp;tr=udp%3A%2F%2Ftracker.coppersurfer.tk%3A6969&amp;tr=udp%3A%2F%2Fexodus.desync.com%3A6969","seeders":1,"leechers":0,"uploader":"OvoJeKraj","files":3,"time":1434084605,"description":"Video\nID : 1\nFormat : AVC\nFormat/Info : Advanced Video Codec\nFormat profile : &lt;a class=&quot;__cf_email__&quot; href=&quot;/cdn-cgi/l/email-protection&quot; data-cfemail=&quot;064e6f616e464a322837&quot;&gt;[email&amp;#160;protected]&lt;/a&gt;&lt;script data-cfhash='f9e31' type=&quot;text/javascript&quot;&gt;\n/* &lt;![CDATA[ */!function(){try{var t=&quot;currentScript&quot;in document?document.currentScript:function(){for(var t=document.getElementsByTagName(&quot;script&quot;),e=t.length;e--;)if(t[e].getAttribute(&quot;data-cfhash&quot;))return t[e]}();if(t&amp;&amp;t.previousSibling){var e,r,n,i,c=t.previousSibling,a=c.getAttribute(&quot;data-cfemail&quot;);if(a){for(e=&quot;&quot;,r=parseInt(a.substr(0,2),16),n=2;a.length-n;n+=2)i=parseInt(a.substr(n,2),16)^r,e+=String.fromCharCode(i);e=document.createTextNode(e),c.parentNode.replaceChild(e,c)}t.parentNode.removeChild(t);}}catch(u){}}()/* ]]&gt; */&lt;/script&gt;\nFormat settings, CABAC : Yes\nFormat settings, ReFrames : 5 frames\nCodec ID : V_MPEG4/ISO/AVC\n\nBit rate : 2 975 Kbps\nWidth : 1 280 pixels\nHeight : 720 pixels\nDisplay aspect ratio : 16:9\nFrame rate mode : Constant\nFrame rate : 23.976 fps\nColor space : YUV\nChroma subsampling : 4:2:0\nBit depth : 8 bits\nScan type : Progressive\nBits/(Pixel*Frame) : 0.135\nStream size : 1.08 GiB (81%)\nWriting library : x264 core 146 r2538 121396c\n\nLanguage : English\nDefault : Yes\nForced : No\nColor range : Limited\nMatrix coefficients : BT.709\nDURATION : 00:52:03.332000000\nNUMBER_OF_FRAMES : 74885\nNUMBER_OF_BYTES : 1189739710\n_STATISTICS_WRITING_APP : mkvmerge v7.6.0 ('Garden of Dreams') 32bit built on Feb 8 2015 12:51:39\n_STATISTICS_WRITING_DATE_UTC : 2015-06-07 14:07:13\n_STATISTICS_TAGS : BPS DURATION NUMBER_OF_FRAMES NUMBER_OF_BYTES\n\nAudio\nID : 2\nFormat : AC-3\nFormat/Info : Audio Coding 3\nMode extension : CM (complete main)\nFormat settings, Endianness : Big\nCodec ID : A_AC3\n\nBit rate mode : Constant\nBit rate : 640 Kbps\nChannel(s) : 6 channels\nChannel positions : Front: L C R, Side: L R, LFE\nSampling rate : 48.0 KHz\nBit depth : 16 bits\nCompression mode : Lossy\nStream size : 238 MiB (17%)\nDefault : Yes\nForced : No","torrent":{"xt":"urn:btih:96f2a5e6645b23210788813b46d7fe7f7c7a274e","amp;dn":"Beauty+and+the+Beast+2012+S03E01+720p+HDTV+x264","amp;tr":["udp%3A%2F%2Ftracker.openbittorrent.com%3A80","udp%3A%2F%2Fopen.demonii.com%3A1337","udp%3A%2F%2Ftracker.coppersurfer.tk%3A6969","udp%3A%2F%2Fexodus.desync.com%3A6969"],"infoHash":"96f2a5e6645b23210788813b46d7fe7f7c7a274e","infoHashBuffer":{"type":"Buffer","data":[150,242,165,230,100,91,35,33,7,136,129,59,70,215,254,127,124,122,39,78]},"announce":[],"urlList":[]}}